# xmcd
#
# Track frame offsets:
#	150
#	16137
#	26117
#	42222
#	58426
#	74595
#	88515
#	102333
#	120169
#	141927
#	165534
#	177641
#
# Disc length: 2483 seconds
#
# Revision: 2
# Processed by: cddbd v1.5.2PL0 Copyright (c) Steve Scherf et al.
# Submitted via: audiograbber 1.83.01
#
DISCID=a609b10c
DTITLE=Willie Nelson - Always On My Mind [CD1/5)
DYEAR=2008
DGENRE=Country
TTITLE0=Always On My Mind
TTITLE1=On The Road Again
TTITLE2=Stardust
TTITLE3=Georgia On My Mind
TTITLE4=Angel Flying To Close To The Ground
TTITLE5=Good Hearted Woman
TTITLE6=Blue Eyes Crying In The Rain
TTITLE7=Red Headed Stranger
TTITLE8=City Of Newa Orleans
TTITLE9=Till I Can Gain Control Again
TTITLE10=Seven Spanish Angels
TTITLE11=Why Are You Picking On Me
EXTD=CD 1 of a set of five CDs with different album-titles:\nAlways On My Mind 
EXTD=(CD1/5]\nTo All The Girls I've Loved Before [CD2/5]\nFace Of A Fighter [CD
EXTD=3/5]\nThe Last Letter [CD4/5]\nCrazy [CD5/5)
EXTT0=
EXTT1=
EXTT2=
EXTT3=
EXTT4=
EXTT5=
EXTT6=
EXTT7=
EXTT8=
EXTT9=
EXTT10=
EXTT11=
PLAYORDER=
